<?xml version="1.0" encoding="UTF-8" standalone="no"?>
<!-- Generator: Adobe Illustrator 16.0.0, SVG Export Plug-In . SVG Version: 6.00 Build 0)  -->

<svg
   xmlns:dc="http://purl.org/dc/elements/1.1/"
   xmlns:cc="http://creativecommons.org/ns#"
   xmlns:rdf="http://www.w3.org/1999/02/22-rdf-syntax-ns#"
   xmlns:svg="http://www.w3.org/2000/svg"
   xmlns="http://www.w3.org/2000/svg"
   xmlns:sodipodi="http://sodipodi.sourceforge.net/DTD/sodipodi-0.dtd"
   xmlns:inkscape="http://www.inkscape.org/namespaces/inkscape"
   version="1.1"
   id="Layer_2"
   x="0px"
   y="0px"
   width="16"
   height="16"
   viewBox="0 0 55.34 55.339999"
   enable-background="new 0 0 280 55"
   xml:space="preserve"
   inkscape:version="0.48.4 r9939"
   sodipodi:docname="logo.svg"><metadata
     id="metadata87"><rdf:RDF><cc:Work
         rdf:about=""><dc:format>image/svg+xml</dc:format><dc:type
           rdf:resource="http://purl.org/dc/dcmitype/StillImage" /><dc:title></dc:title></cc:Work></rdf:RDF></metadata><defs
     id="defs85" /><sodipodi:namedview
     pagecolor="#ffffff"
     bordercolor="#666666"
     borderopacity="1"
     objecttolerance="10"
     gridtolerance="10"
     guidetolerance="10"
     inkscape:pageopacity="0"
     inkscape:pageshadow="2"
     inkscape:window-width="1855"
     inkscape:window-height="1056"
     id="namedview83"
     showgrid="false"
     fit-margin-top="2"
     fit-margin-bottom="2"
     fit-margin-left="7"
     fit-margin-right="7"
     inkscape:zoom="2.8142857"
     inkscape:cx="26.399442"
     inkscape:cy="35.132146"
     inkscape:window-x="65"
     inkscape:window-y="24"
     inkscape:window-maximized="1"
     inkscape:current-layer="g3"
     units="px" /><g
     id="g3"
     transform="translate(-0.23931813,0.17197915)"><g
       id="g5"
       transform="translate(-125.99568,0)"><polygon
         points="153.904,50.664 133.845,39.082 131.676,40.334 153.905,53.168 176.134,40.334 176.134,40.334 173.966,39.082 "
         id="polygon7"
         style="fill:#00addc" /></g><g
       id="g9"
       transform="translate(-125.99568,0)"><polygon
         points="153.906,46.998 133.845,35.414 131.676,36.668 153.904,49.502 176.134,36.668 176.134,36.668 173.966,35.414 "
         id="polygon11"
         style="fill:#00b9e1" /></g><g
       id="g13"
       transform="translate(-125.99568,0)"><polygon
         points="153.905,43.332 133.845,31.748 131.676,33 153.906,45.834 176.134,33 176.134,33 173.966,31.748 "
         id="polygon15"
         style="fill:#00c4e6" /></g><g
       id="g17"
       transform="translate(-125.99568,0)"><polygon
         points="153.905,39.664 133.845,28.082 131.676,29.334 153.905,42.168 176.134,29.334 176.134,29.334 173.966,28.082 "
         id="polygon19"
         style="fill:#00d0eb" /></g><g
       id="g21"
       transform="translate(-125.99568,0)"><polygon
         points="173.966,24.414 153.906,35.998 133.845,24.414 131.676,25.666 153.905,38.502 176.134,25.666 "
         id="polygon23"
         style="fill:#00dcf0" /></g><g
       id="g25"
       transform="translate(-125.99568,0)"><polygon
         points="173.967,20.748 153.905,32.33 133.845,20.748 131.676,22 153.906,34.834 176.134,22 176.134,22 "
         id="polygon27"
         style="fill:#00e8f5" /></g><g
       id="g29"
       transform="translate(-125.99568,0)"><polygon
         points="173.966,17.081 153.905,28.664 133.845,17.081 131.676,18.333 153.905,31.168 176.134,18.333 "
         id="polygon31"
         style="fill:#00f3fa" /></g><g
       id="g33"
       transform="translate(-125.99568,0)"><polygon
         points="176.134,14.666 176.134,14.666 153.905,27.5 131.676,14.666 153.905,1.832 "
         id="polygon35"
         style="fill:#00ffff" /></g></g></svg>