<?xml version="1.0" encoding="UTF-8" standalone="no"?>
<!-- Generator: Adobe Illustrator 16.0.0, SVG Export Plug-In . SVG Version: 6.00 Build 0)  -->

<svg
   xmlns:dc="http://purl.org/dc/elements/1.1/"
   xmlns:cc="http://creativecommons.org/ns#"
   xmlns:rdf="http://www.w3.org/1999/02/22-rdf-syntax-ns#"
   xmlns:svg="http://www.w3.org/2000/svg"
   xmlns="http://www.w3.org/2000/svg"
   xmlns:sodipodi="http://sodipodi.sourceforge.net/DTD/sodipodi-0.dtd"
   xmlns:inkscape="http://www.inkscape.org/namespaces/inkscape"
   version="1.1"
   id="Layer_2"
   x="0px"
   y="0px"
   width="279.52136"
   height="55.335999"
   viewBox="0 0 279.52136 55.335999"
   enable-background="new 0 0 280 55"
   xml:space="preserve"
   inkscape:version="0.91 r"
   sodipodi:docname="logo.svg"><metadata
     id="metadata87"><rdf:RDF><cc:Work
         rdf:about=""><dc:format>image/svg+xml</dc:format><dc:type
           rdf:resource="http://purl.org/dc/dcmitype/StillImage" /><dc:title></dc:title></cc:Work></rdf:RDF></metadata><defs
     id="defs85" /><sodipodi:namedview
     pagecolor="#ffffff"
     bordercolor="#666666"
     borderopacity="1"
     objecttolerance="10"
     gridtolerance="10"
     guidetolerance="10"
     inkscape:pageopacity="0"
     inkscape:pageshadow="2"
     inkscape:window-width="1920"
     inkscape:window-height="1024"
     id="namedview83"
     showgrid="false"
     fit-margin-top="2"
     fit-margin-bottom="2"
     fit-margin-left="7"
     fit-margin-right="7"
     inkscape:zoom="2.8142857"
     inkscape:cx="70.638021"
     inkscape:cy="35.132146"
     inkscape:window-x="0"
     inkscape:window-y="27"
     inkscape:window-maximized="1"
     inkscape:current-layer="Layer_2" /><g
     id="g3"
     transform="translate(-0.23931813,0.168)"><g
       id="g5"><polygon
         points="176.134,40.334 176.134,40.334 173.966,39.082 153.904,50.664 133.845,39.082 131.676,40.334 153.905,53.168 "
         id="polygon7"
         style="fill:#00addc" /></g><g
       id="g9"><polygon
         points="176.134,36.668 176.134,36.668 173.966,35.414 153.906,46.998 133.845,35.414 131.676,36.668 153.904,49.502 "
         id="polygon11"
         style="fill:#00b9e1" /></g><g
       id="g13"><polygon
         points="176.134,33 176.134,33 173.966,31.748 153.905,43.332 133.845,31.748 131.676,33 153.906,45.834 "
         id="polygon15"
         style="fill:#00c4e6" /></g><g
       id="g17"><polygon
         points="176.134,29.334 176.134,29.334 173.966,28.082 153.905,39.664 133.845,28.082 131.676,29.334 153.905,42.168 "
         id="polygon19"
         style="fill:#00d0eb" /></g><g
       id="g21"><polygon
         points="176.134,25.666 173.966,24.414 153.906,35.998 133.845,24.414 131.676,25.666 153.905,38.502 "
         id="polygon23"
         style="fill:#00dcf0" /></g><g
       id="g25"><polygon
         points="153.906,34.834 176.134,22 176.134,22 173.967,20.748 153.905,32.33 133.845,20.748 131.676,22 "
         id="polygon27"
         style="fill:#00e8f5" /></g><g
       id="g29"><polygon
         points="176.134,18.333 173.966,17.081 153.905,28.664 133.845,17.081 131.676,18.333 153.905,31.168 "
         id="polygon31"
         style="fill:#00f3fa" /></g><g
       id="g33"><polygon
         points="153.905,1.832 176.134,14.666 176.134,14.666 153.905,27.5 131.676,14.666 "
         id="polygon35"
         style="fill:#00ffff" /></g><g
       id="g37"><line
         stroke-miterlimit="10"
         x1="187.82001"
         y1="14.665"
         x2="187.82001"
         y2="40.334"
         id="line39"
         style="fill:none;stroke:#29abe2;stroke-width:1.5;stroke-linecap:round;stroke-miterlimit:10" /><line
         stroke-miterlimit="10"
         x1="206.229"
         y1="14.665"
         x2="206.229"
         y2="40.334"
         id="line41"
         style="fill:none;stroke:#29abe2;stroke-width:1.5;stroke-linecap:round;stroke-miterlimit:10" /><line
         stroke-miterlimit="10"
         x1="217.99699"
         y1="14.665"
         x2="217.99699"
         y2="40.334"
         id="line43"
         style="fill:none;stroke:#29abe2;stroke-width:1.5;stroke-linecap:round;stroke-miterlimit:10" /><line
         stroke-miterlimit="10"
         x1="206.229"
         y1="27.5"
         x2="187.82001"
         y2="27.5"
         id="line45"
         style="fill:none;stroke:#29abe2;stroke-width:1.5;stroke-linecap:round;stroke-miterlimit:10" /><polyline
         stroke-miterlimit="10"
         points="    249.379,14.665 238.236,40.334 227.092,14.665   "
         id="polyline47"
         style="fill:none;stroke:#29abe2;stroke-width:1.5;stroke-linecap:round;stroke-linejoin:round;stroke-miterlimit:10" /><g
         id="g49"><polyline
           stroke-miterlimit="10"
           points="272,14.665      256.562,14.665 256.562,40.334 272,40.334    "
           id="polyline51"
           style="fill:none;stroke:#29abe2;stroke-width:1.5;stroke-linecap:round;stroke-miterlimit:10" /><line
           stroke-miterlimit="10"
           x1="256.56201"
           y1="27.5"
           x2="268.54599"
           y2="27.5"
           id="line53"
           style="fill:none;stroke:#29abe2;stroke-width:1.5;stroke-linecap:round;stroke-miterlimit:10" /></g></g><g
       id="g55"><g
         id="g57"><path
           stroke-miterlimit="10"
           d="m 8,29.859 7.98,0 c 4.196,0 7.598,-3.402 7.598,-7.598 0,-4.194 -3.401,-7.597 -7.598,-7.597 l -7.98,0 0,25.669"
           id="path59"
           inkscape:connector-curvature="0"
           style="fill:none;stroke:#29abe2;stroke-width:1.5;stroke-linecap:round;stroke-miterlimit:10" /></g><g
         id="g61"><line
           stroke-miterlimit="10"
           x1="44.173"
           y1="32.312"
           x2="29.145"
           y2="32.312"
           id="line63"
           style="fill:none;stroke:#29abe2;stroke-width:1.5;stroke-linecap:round;stroke-miterlimit:10" /><polyline
           stroke-miterlimit="10"
           points="     25.662,40.334 36.806,14.665 47.949,40.334    "
           id="polyline65"
           style="fill:none;stroke:#29abe2;stroke-width:1.5;stroke-linecap:round;stroke-linejoin:round;stroke-miterlimit:10" /></g><g
         id="g67"><path
           stroke-miterlimit="10"
           d="m 56.589,29.859 7.981,0 c 4.196,0 7.598,-3.402 7.598,-7.598 0,-4.194 -3.401,-7.597 -7.598,-7.597 l -7.981,0 0,25.669"
           id="path69"
           inkscape:connector-curvature="0"
           style="fill:none;stroke:#29abe2;stroke-width:1.5;stroke-linecap:round;stroke-miterlimit:10" /></g><g
         id="g71"><polyline
           stroke-miterlimit="10"
           points="     95.968,14.665 80.53,14.665 80.53,40.334 95.968,40.334    "
           id="polyline73"
           style="fill:none;stroke:#29abe2;stroke-width:1.5;stroke-linecap:round;stroke-miterlimit:10" /><line
           stroke-miterlimit="10"
           x1="80.529999"
           y1="27.5"
           x2="92.514"
           y2="27.5"
           id="line75"
           style="fill:none;stroke:#29abe2;stroke-width:1.5;stroke-linecap:round;stroke-miterlimit:10" /></g><g
         id="g77"><path
           stroke-miterlimit="10"
           d="m 104.848,29.859 7.981,0 c 4.196,0 7.598,-3.402 7.598,-7.598 0,-4.194 -3.401,-7.597 -7.598,-7.597 l -7.981,0 0,25.669"
           id="path79"
           inkscape:connector-curvature="0"
           style="fill:none;stroke:#29abe2;stroke-width:1.5;stroke-linecap:round;stroke-miterlimit:10" /><line
           stroke-miterlimit="10"
           x1="119.989"
           y1="40.334"
           x2="112.829"
           y2="29.858999"
           id="line81"
           style="fill:none;stroke:#29abe2;stroke-width:1.5;stroke-linecap:round;stroke-miterlimit:10" /></g></g></g></svg>